<svg width="1920" height="749" viewBox="0 0 1920 749" fill="none" xmlns="http://www.w3.org/2000/svg">
<path d="M-20.895 239.486C111.065 227.898 204.197 191.039 265.231 159.128C326.949 126.858 371.399 91.4577 452.623 72.4254C542.209 51.2784 600.743 60.7523 623.895 66.0813C655.994 73.4827 653.999 78.5157 706.509 95.6871C807.379 128.676 826.541 114 871.737 135.866C946.673 172.112 924.327 227.115 1002.71 288.124C1059.47 332.322 1153.45 367.489 1238.46 343.107C1318.52 320.141 1327.52 262.473 1411.75 254.289C1446.35 250.927 1475.12 258.392 1532.65 273.322C1606.37 292.354 1655.88 315.827 1675.71 324.074C1734.45 348.541 1829.25 363.936 1984 315.615" stroke="url(#paint0_linear_76_10)" stroke-opacity="0.7" stroke-width="5" stroke-miterlimit="10"/>
<path d="M-21.7817 258.138C105.867 248.136 201.296 214.766 267.87 181.692C321.952 154.455 363.198 124.595 420.041 103.258C432.473 98.6058 445.57 94.1015 459.675 90.2104C548.556 65.7222 606.869 69.7613 631.21 72.2355C663.852 75.5344 663.852 79.2986 715.314 95.9835C751.584 107.72 777.416 114.424 797.424 118.822C831.437 126.287 848.464 126.795 875.303 141.153C885.318 146.467 894.716 152.974 903.311 160.545C943.066 195.543 941.374 239.91 1007.32 286.941C1064.73 327.881 1158.08 358.84 1241.64 334.627C1248.27 332.704 1254.79 330.432 1261.19 327.818C1325.79 301.405 1340.3 254.945 1414.33 247.65C1422.13 246.869 1429.97 246.636 1437.8 246.952C1464.12 247.924 1491.32 254.818 1534.4 265.984C1605.77 284.593 1654.51 307.622 1676.37 316.737C1692.39 323.35 1708.9 328.543 1725.74 332.259C1784.01 345.285 1866.39 346.639 1982.27 313.395" stroke="url(#paint1_linear_76_10)" stroke-opacity="0.7" stroke-width="5" stroke-miterlimit="10"/>
<path d="M-22.6685 278.438C100.648 269.979 198.475 240.373 270.51 205.734C327.715 178.243 370.875 146.84 426.67 124.424C439.404 119.285 452.603 114.083 466.768 109.621C554.943 81.7708 612.954 78.4084 638.584 80.0156C671.61 82.1303 673.806 81.7285 724.14 97.9059C759.382 109.262 785.113 116.938 804.739 122.331C837.804 131.36 853.702 133.179 878.809 148.088C888.376 153.829 897.367 160.567 905.648 168.198C944.054 202.964 945.948 244.666 1011.98 287.467C1070.03 325.13 1162.76 351.881 1244.87 327.837C1251.82 325.722 1258.25 323.607 1264.27 321.07C1330.91 294.171 1345.66 249.868 1416.97 242.826C1424.71 242.026 1432.49 241.765 1440.26 242.044C1467.02 242.868 1494.18 249.572 1536.21 260.632C1605.25 278.734 1653.18 301.382 1677.1 311.152C1692.98 317.706 1709.34 322.91 1726.02 326.716C1783.77 340.039 1865.76 342.851 1980.49 312.907" stroke="url(#paint2_linear_76_10)" stroke-opacity="0.7" stroke-width="5" stroke-miterlimit="10"/>
<path d="M-23.5352 300.114C95.4488 293.283 195.613 267.167 273.169 231.259C333.417 203.345 378.552 170.504 433.259 146.989C446.316 141.364 459.635 135.485 473.82 130.431C561.29 99.2599 618.898 92.7255 645.919 89.1728C679.347 84.7954 683.719 85.5355 732.945 101.205C767.2 112.138 792.83 120.809 812.174 127.195C844.272 137.769 859.082 140.941 882.456 156.378C891.502 162.557 900.035 169.525 907.965 177.208C945.021 211.719 950.622 250.736 1016.57 289.287C1075.35 323.672 1167.37 346.235 1248.03 322.339C1254.92 320.225 1261.31 318.11 1267.3 315.636C1335.93 288.145 1350.98 246.083 1419.53 239.084C1427.21 238.264 1434.94 237.975 1442.66 238.217C1469.86 238.872 1497.06 245.428 1537.99 256.276C1604.64 273.849 1651.81 296.096 1677.76 306.69C1693.55 313.145 1709.78 318.355 1726.31 322.276C1783.53 335.894 1865.14 340.187 1978.7 313.521" stroke="url(#paint3_linear_76_10)" stroke-opacity="0.7" stroke-width="5" stroke-miterlimit="10"/>
<path d="M-24.4214 321.831C90.2506 316.586 192.712 294.001 275.809 256.804C339.12 228.446 386.209 194.145 439.868 169.573C453.227 163.461 466.647 156.885 480.893 151.259C567.658 116.832 624.742 105.117 653.274 98.392C686.984 90.4408 693.573 89.4046 741.771 104.567C775.119 115.14 800.528 124.741 819.549 132.058C850.68 144.154 864.382 148.722 886.043 164.667C894.551 171.268 902.629 178.46 910.223 186.194C945.948 220.41 955.257 256.762 1021.15 291.189C1080.65 322.275 1171.95 340.673 1251.18 316.946C1257.99 314.831 1264.33 312.716 1270.3 310.285C1340.94 282.223 1356.26 242.614 1422.07 235.53C1429.7 234.722 1437.37 234.404 1445.04 234.578C1472.64 235.086 1499.76 241.472 1539.74 252.109C1604.06 269.196 1650.44 291.062 1678.43 302.418C1694.11 308.809 1710.19 314.032 1726.57 318.046C1783.29 331.981 1864.51 337.712 1976.93 314.366" stroke="url(#paint4_linear_76_10)" stroke-opacity="0.7" stroke-width="5" stroke-miterlimit="10"/>
<path d="M-25.2676 335.831C85.0923 332.172 189.871 313.14 278.489 274.653C344.842 245.829 393.907 210.006 446.518 184.461C460.159 177.842 473.72 170.652 488.006 164.392C574.025 126.709 630.646 109.918 660.608 99.873C694.621 88.496 703.547 85.5142 750.577 100.19C776.548 108.324 802.041 118.055 826.924 129.331C857.148 142.928 869.702 148.934 889.589 165.281C898.274 172.449 905.165 180.083 912.62 187.506C947.016 221.341 960.053 255.176 1025.82 285.374C1086.11 313.14 1176.64 327.393 1254.42 303.835C1261.17 301.721 1267.48 299.606 1273.4 297.217C1346.08 268.647 1361.66 231.132 1424.73 224.259C1432.3 223.448 1439.91 223.109 1447.51 223.244C1475.56 223.646 1502.64 229.8 1541.53 240.162C1603.49 256.699 1649.11 278.227 1679.12 290.344C1694.69 296.667 1710.65 301.895 1726.89 305.992C1783.09 320.246 1863.91 327.457 1975.17 307.388" stroke="url(#paint5_linear_76_10)" stroke-opacity="0.7" stroke-width="5" stroke-miterlimit="10"/>
<path d="M-26.1943 345.813C79.8334 343.698 186.929 328.197 281.089 288.462C350.484 259.174 401.483 221.786 453.087 195.416C467.03 188.268 480.692 180.444 495.038 173.592C580.412 132.715 636.59 110.87 667.963 97.4629C702.217 82.7658 713.461 77.7328 759.402 91.9013C785.144 99.8414 810.194 110.071 834.279 122.48C863.516 137.536 875.001 145.022 893.156 161.94C901.216 169.405 907.563 177.356 914.958 184.863C948.044 218.487 964.829 249.404 1030.44 275.605C1091.55 300.009 1181.3 310.159 1257.62 286.749C1264.29 284.635 1270.54 282.52 1276.46 280.173C1351.18 251.159 1367.08 215.801 1427.32 209.182C1434.84 208.35 1442.4 207.983 1449.95 208.083C1478.4 208.336 1505.49 214.3 1543.31 224.535C1602.91 240.586 1647.74 261.711 1679.8 274.632C1695.27 280.875 1711.09 286.109 1727.17 290.302C1782.87 304.872 1863.3 313.564 1973.42 296.752" stroke="url(#paint6_linear_76_10)" stroke-opacity="0.7" stroke-width="5" stroke-miterlimit="10"/>
<path d="M-27.061 355.941C74.6345 355.455 184.007 343.401 283.748 302.419C356.166 272.644 409.079 233.649 459.675 206.327C473.921 198.608 487.724 190.149 502.11 182.748C586.8 138.72 642.574 111.906 675.297 94.988C710.015 77.0553 723.374 69.9077 768.207 83.5686C793.763 91.4256 818.398 102.264 841.653 115.881C869.863 132.355 880.3 141.406 896.742 158.746C904.117 166.528 909.961 174.733 917.275 182.388C949.071 215.653 969.664 243.82 1035.07 265.982C1097.03 286.981 1185.93 293.05 1260.75 269.831C1267.36 267.716 1273.56 265.602 1279.45 263.276C1356.2 233.67 1372.28 200.532 1429.86 193.956C1437.32 193.123 1444.81 192.728 1452.31 192.772C1481.2 192.772 1508.25 198.65 1545 208.716C1602.26 224.217 1646.29 245.005 1680.4 258.665C1695.77 264.856 1711.45 270.109 1727.39 274.399C1782.56 289.202 1862.62 299.373 1971.57 285.903" stroke="url(#paint7_linear_76_10)" stroke-opacity="0.7" stroke-width="5" stroke-miterlimit="10"/>
<path d="M-27.9478 366.115C69.4358 367.214 181.105 358.65 286.388 316.419C361.848 286.158 416.676 245.535 466.284 217.388C480.792 209.162 494.756 200.132 509.163 192.012C593.187 144.833 648.599 113.049 682.652 92.621C717.793 71.4741 733.288 62.1694 777.033 75.3228C802.394 83.089 826.618 94.4738 849.028 109.158C876.371 127.069 885.579 137.685 900.309 155.449C907.018 163.569 912.398 171.986 919.612 179.789C950.119 212.715 974.48 238.07 1039.68 256.256C1102.53 273.787 1190.57 275.859 1263.99 252.788C1270.54 250.673 1276.71 248.559 1282.55 246.296C1361.35 216.246 1377.66 185.224 1432.52 178.774C1439.92 177.939 1447.36 177.516 1454.81 177.505C1484.13 177.315 1511.23 183.067 1546.87 192.921C1601.76 207.914 1645.02 228.342 1681.17 242.764C1696.42 248.912 1711.97 254.199 1727.76 258.604C1782.42 273.787 1862.09 285.354 1969.9 275.183" stroke="url(#paint8_linear_76_10)" stroke-opacity="0.7" stroke-width="5" stroke-miterlimit="10"/>
<path d="M-28.834 376.243C64.2375 378.865 178.244 373.769 289.068 330.312C367.652 299.543 424.272 257.27 472.934 228.341C487.724 219.544 501.829 209.943 516.276 201.231C599.615 150.965 654.684 114.232 690.047 90.1882C725.692 65.9326 743.262 54.3864 785.899 67.0323C811.084 74.7716 834.902 86.7561 856.423 102.517C882.819 121.803 890.879 134.068 903.896 152.233C909.941 160.692 914.797 169.299 922.03 177.271C951.288 209.838 979.457 232.254 1044.42 246.591C1108.15 260.612 1195.3 258.73 1267.3 235.827C1273.76 233.713 1279.89 231.598 1285.71 229.483C1366.55 198.968 1383.1 170.06 1435.2 163.78C1442.56 162.901 1449.96 162.449 1457.37 162.426C1487.11 162.215 1514.11 167.65 1548.79 177.229C1601.32 191.715 1643.79 211.783 1682 226.967C1695.8 232.465 1711.09 237.9 1728.2 242.764C1782.34 258.243 1861.63 271.291 1968.26 264.397" stroke="url(#paint9_linear_76_10)" stroke-opacity="0.7" stroke-width="5" stroke-miterlimit="10"/>
<path d="M-29.7207 386.076C58.938 390.305 175.262 388.698 291.667 344.035C373.193 312.759 431.768 268.795 479.503 239.104C494.554 229.736 508.82 219.586 523.308 210.239C606.043 156.885 660.81 115.225 697.341 87.5862C733.489 60.0951 753.115 46.4342 794.664 58.5726C819.701 66.2921 843.142 78.8579 863.777 95.622C889.267 116.304 896.017 130.24 907.442 148.764C912.822 157.561 917.194 166.38 924.267 174.5C952.275 206.665 984.232 226.268 1048.93 236.672C1113.63 247.077 1199.83 241.325 1270.38 218.592C1276.79 216.477 1282.87 214.362 1288.65 212.248C1371.55 181.267 1388.33 154.474 1437.76 148.341C1445.05 147.448 1452.37 146.975 1459.7 146.925C1489.93 146.523 1516.85 151.81 1550.38 161.262C1600.57 175.219 1642.24 194.949 1682.5 210.873C1696.24 216.329 1711.42 221.743 1728.32 226.712C1781.94 242.488 1860.85 256.994 1966.33 253.421" stroke="url(#paint10_linear_76_10)" stroke-opacity="0.7" stroke-width="5" stroke-miterlimit="10"/>
<path d="M-30.5869 395.782C53.8202 401.639 172.341 403.437 294.327 357.59C378.956 325.87 439.284 280.108 486.092 249.741C501.426 239.78 515.853 229.101 530.421 219.12C612.511 162.658 666.996 116.134 704.676 84.7733C741.409 54.2793 763.11 38.2499 803.409 49.9019C830.168 57.6417 854.469 73.65 871.092 88.5163C895.695 110.551 901.317 126.2 910.968 145.084C915.643 154.22 919.552 163.25 926.524 171.539C953.303 203.26 988.988 219.945 1053.47 226.521C1119.01 233.267 1204.39 223.709 1273.48 201.145C1279.81 199.03 1285.85 196.916 1291.62 194.801C1376.55 163.334 1393.55 138.656 1440.2 132.692C1447.43 131.786 1454.7 131.285 1461.98 131.191C1492.59 130.578 1519.51 135.737 1552.09 145C1599.93 158.449 1640.75 177.82 1683.06 194.505C1696.75 199.897 1711.8 205.332 1728.48 210.365C1781.6 226.458 1860.12 242.424 1964.44 242.086" stroke="url(#paint11_linear_76_10)" stroke-opacity="0.7" stroke-width="5" stroke-miterlimit="10"/>
<path d="M-31.4736 405.362C48.6214 412.827 169.338 417.797 296.966 370.998C384.477 338.517 446.779 291.274 492.701 260.167C508.276 249.594 522.925 238.407 537.453 227.791C618.979 168.347 673.202 116.791 712.03 81.8772C749.368 48.2958 772.923 30.0249 812.295 41.1482C838.107 48.5073 862.286 65.3614 878.527 81.3274C902.243 104.716 906.515 122.056 914.595 141.321C918.625 150.795 922.03 159.994 928.921 168.453C954.471 199.835 993.945 213.454 1058.18 216.393C1124.68 219.417 1209.12 206.116 1276.77 183.7C1283.04 181.599 1289.04 179.485 1294.76 177.356C1381.77 145.466 1398.99 122.86 1442.9 117.066C1450.07 116.135 1457.28 115.605 1464.5 115.48C1495.53 114.697 1522.45 119.709 1553.99 128.76C1599.44 141.681 1639.52 160.798 1683.91 178.159C1697.53 183.531 1712.44 188.923 1728.95 194.041C1781.54 210.451 1859.68 227.876 1962.84 230.879" stroke="url(#paint12_linear_76_10)" stroke-opacity="0.7" stroke-width="5" stroke-miterlimit="10"/>
<path d="M-32.3604 414.793C43.4025 423.823 166.437 432.282 299.606 384.257C390.159 351.289 454.295 302.228 499.31 270.507C515.127 259.363 529.937 247.626 544.526 236.376C625.467 173.908 679.529 117.403 719.364 78.8101C757.347 42.1201 782.836 21.523 821.02 32.1599C845.905 39.1173 869.984 56.8384 885.801 73.9463C908.671 98.6883 911.593 117.763 918.041 137.387C921.305 147.221 924.347 156.61 931.118 165.217C955.6 196.176 998.841 208.864 1062.82 206.009C1130.08 203.006 1213.78 188.267 1279.99 166.02C1286.2 163.92 1292.15 161.805 1297.84 159.676C1386.94 127.49 1404.35 106.809 1445.52 101.184C1452.63 100.245 1459.79 99.6946 1466.96 99.5342C1498.41 98.6037 1525.39 103.425 1555.78 112.222C1598.8 124.741 1638.17 143.626 1684.6 161.622C1698.16 166.951 1712.95 172.343 1729.23 177.545C1781.31 194.273 1859.07 213.157 1961.07 219.459" stroke="url(#paint13_linear_76_10)" stroke-opacity="0.7" stroke-width="5" stroke-miterlimit="10"/>
<path d="M-33.3276 424.118C38.1232 434.692 163.454 446.682 302.165 397.41C395.76 363.955 461.61 313.097 505.818 280.657C521.938 268.9 536.909 256.677 551.497 244.708C631.895 179.152 685.654 117.826 726.639 75.5319C765.346 35.7756 792.81 12.9792 829.926 23.0875C853.864 29.643 877.842 48.2101 893.256 66.4599C915.28 92.5129 916.791 113.322 921.728 133.284C924.267 143.477 926.906 153.036 933.576 161.833C956.748 192.369 1003.58 199.897 1067.43 195.499C1135.58 190.867 1218.39 170.291 1283.15 148.214C1289.2 146.099 1295.24 143.985 1300.86 141.87C1392 109.198 1409.67 90.6097 1448.1 85.1749C1455.15 84.2109 1462.25 83.6321 1469.36 83.4409C1501.23 82.3413 1528.11 87.0147 1557.53 95.6427C1598.29 107.548 1636.8 125.967 1685.26 144.831C1698.78 150.117 1713.47 155.404 1729.59 160.796C1781.15 177.714 1858.55 198.163 1959.3 207.764" stroke="url(#paint14_linear_76_10)" stroke-opacity="0.7" stroke-width="5" stroke-miterlimit="10"/>
<path d="M-34.1133 433.34C33.0054 445.542 160.613 460.979 304.905 410.48C401.624 376.54 469.126 323.778 512.447 290.767C528.728 278.375 544.002 265.687 558.59 253.126C638.564 184.779 691.981 118.208 733.893 72.277C773.225 29.3276 802.502 4.33185 838.671 13.9749C861.662 20.1286 885.58 39.5415 900.571 58.9122C921.769 86.4032 921.829 108.819 925.254 129.162C927.007 139.736 929.284 149.442 935.833 158.409C957.837 188.522 1008.37 192.836 1071.98 184.948C1140.96 176.489 1222.99 152.276 1286.28 130.347C1292.32 128.232 1298.23 126.117 1303.85 124.172C1397.04 91.0132 1414.91 74.4552 1450.62 69.1896C1457.66 68.2393 1464.75 67.6746 1471.86 67.4978C1501.42 66.3295 1530.96 70.2586 1559.31 79.1287C1597.71 90.5269 1635.43 108.586 1685.95 128.211C1699.41 133.434 1713.95 138.784 1729.81 144.198C1803.95 169.095 1880.18 186.522 1957.46 196.241" stroke="url(#paint15_linear_76_10)" stroke-opacity="0.7" stroke-width="5" stroke-miterlimit="10"/>
<path d="M-35 442.496C27.8066 456.284 157.712 475.211 307.545 423.464C407.225 389.037 476.52 334.499 519.117 300.812C708.181 151.155 768.026 -15.9911 847.557 4.75409C869.601 10.5061 893.458 30.7649 908.006 51.2774C939.077 95.0516 919.491 128.252 938.231 154.898C984.172 220.242 1190.83 147.263 1306.97 106.26C1420.21 66.2706 1424.4 53.3921 1474.21 51.2774C1561.16 47.5344 1606.35 84.1821 1730.11 127.406C1803.7 152.983 1879.18 172.081 1955.79 184.503" stroke="url(#paint16_linear_76_10)" stroke-opacity="0.7" stroke-width="5" stroke-miterlimit="10"/>
<path d="M-35 448.544C29.479 463.622 155.354 480.899 298.598 431.373C397.473 397.093 463.826 342.027 509.546 306.605C692.183 165.28 749.146 12.2186 830.168 25.8796C861.823 31.2086 893.962 41.8878 915.179 58.2556C956.869 90.4412 941.374 119.222 965.554 144.958C1018.49 201.336 1211.24 138.043 1321.82 100.423C1429.54 63.648 1433.89 53.2437 1486.54 55.3584C1574.03 58.8688 1617.17 91.3083 1733.76 132.799C1806.5 158.671 1881.4 177.299 1957.46 188.436" stroke="url(#paint17_linear_76_10)" stroke-opacity="0.7" stroke-width="5" stroke-miterlimit="10"/>
<path d="M-35 454.847C72.5314 480.825 184.778 475.525 289.652 439.515C387.721 405.405 451.011 349.767 499.975 312.633C675.942 179.281 731.031 38.0188 812.799 47.2389C854.287 51.9335 893.297 53.1178 922.353 65.4887C972.203 86.6357 962.491 110.109 992.877 135.274C1050.93 183.298 1231.65 129.057 1336.69 94.8196C1438.71 61.2593 1443.24 53.1178 1498.9 59.6733C1586.71 69.993 1628 98.8798 1737.41 138.446C1809.28 164.595 1883.57 182.754 1959.05 192.624" stroke="url(#paint18_linear_76_10)" stroke-opacity="0.7" stroke-width="5" stroke-miterlimit="10"/>
<path d="M-35 466.053C69.4002 492.344 178.708 487.673 280.726 452.562C377.968 418.6 438.216 362.391 490.404 323.565C659.339 197.91 713.501 83.378 795.41 73.5024C846.65 67.3275 891.967 69.8651 929.546 77.6049C986.328 89.278 983.023 105.921 1020.22 130.472C1081.8 171.117 1252.1 125.186 1351.54 94.1207C1448.02 63.9862 1452.51 57.7056 1511.23 68.8712C1599.32 85.6196 1638.8 111.313 1741.08 148.976C1812.09 175.434 1885.8 193.134 1960.71 201.716" stroke="url(#paint19_linear_76_10)" stroke-opacity="0.7" stroke-width="5" stroke-miterlimit="10"/>
<path d="M-35 483.12C66.261 509.708 172.627 505.646 271.779 471.405C368.216 437.569 425.401 380.79 480.832 340.293C642.614 222.103 696.212 118.504 778.04 105.562C838.832 95.9614 892.511 81.2854 936.719 95.5173C997.551 115.099 999.828 116.453 1047.54 131.467C1104.95 177.166 1272.53 127.047 1366.41 99.218C1457.29 72.3614 1461.76 67.9205 1523.58 83.8865C1611.9 106.704 1649.58 129.627 1744.72 165.302C1814.88 192.061 1888.01 209.295 1962.34 216.584" stroke="url(#paint20_linear_76_10)" stroke-opacity="0.7" stroke-width="5" stroke-miterlimit="10"/>
<path d="M-35 500.586C63.1172 527.488 166.548 524.096 262.873 490.816C358.504 457.15 412.605 399.736 471.302 357.59C625.769 246.653 678.763 153.035 760.571 138.19C831.095 125.418 889.77 105.159 943.933 114.019C1013.77 125.439 1019.96 120.956 1074.91 133.052C1135.13 173.717 1292.95 129.309 1381.18 104.884C1466.45 81.305 1470.93 78.4924 1535.83 99.4702C1624.49 128.061 1660.25 148.552 1748.29 182.197C1817.6 209.258 1890.16 226.028 1963.89 232.019" stroke="url(#paint21_linear_76_10)" stroke-opacity="0.7" stroke-width="5" stroke-miterlimit="10"/>
<path d="M-35 518.392C59.9508 545.556 160.418 542.798 253.886 510.462C348.711 476.944 399.689 418.896 461.69 375.121C608.783 271.269 661.172 187.125 743.282 171.053C823.337 155.383 888.078 142.526 951.066 132.735C1028.84 120.639 1040.01 125.651 1102.19 134.85C1165.34 170.609 1313.36 131.889 1396.13 110.784C1475.8 90.4834 1480.28 89.1723 1548.26 115.289C1637.08 149.42 1671.08 167.797 1751.94 199.348C1820.39 226.701 1892.41 243.007 1965.52 247.711" stroke="url(#paint22_linear_76_10)" stroke-opacity="0.7" stroke-width="5" stroke-miterlimit="10"/>
<path d="M-35 536.431C40.0173 559.206 141.31 566.883 244.96 530.362C339.039 497.203 386.814 438.267 452.119 392.907C591.696 295.969 643.541 220.982 725.893 204.17C815.68 185.857 887.091 167.945 958.259 151.704C1043.49 132.228 1062.03 118.631 1129.53 136.902C1199.47 155.828 1333.77 134.787 1410.98 116.939C1485.05 99.8943 1489.57 100.021 1560.59 131.34C1649.86 170.821 1681.82 187.337 1755.68 216.731C1801.61 235.002 1870.88 258.898 1967.26 263.635" stroke="url(#paint23_linear_76_10)" stroke-opacity="0.7" stroke-width="5" stroke-miterlimit="10"/>
<path d="M-35 554.787C41.7704 578.81 138.952 584.879 236.013 550.558C329.286 517.569 373.898 457.871 442.548 410.988C574.508 320.838 625.608 254.796 708.524 237.583C808.063 216.901 886.285 193.787 965.433 170.97C1058.34 144.177 1081.54 123.791 1156.85 139.249C1228.65 154.052 1354.16 137.811 1425.85 123.389C1494.36 109.601 1499.04 110.87 1572.95 147.708C1662.65 192.392 1692.51 207.258 1759.33 234.411C1804.59 252.809 1872.83 276.705 1968.89 279.877" stroke="url(#paint24_linear_76_10)" stroke-opacity="0.7" stroke-width="5" stroke-miterlimit="10"/>
<path d="M-35 573.353C43.5838 598.73 136.595 603.086 227.067 570.985C319.534 538.165 360.942 477.684 432.977 429.3C557.26 345.812 607.675 288.63 691.135 271.227C800.527 248.409 885.579 219.924 972.606 190.466C1073.35 156.377 1101.06 129.669 1184.18 141.828C1257.93 152.613 1374.55 141.173 1440.7 130.071C1503.53 119.497 1508.51 121.929 1585.28 164.307C1675.55 214.109 1703.19 227.473 1762.98 252.321C1807.59 270.867 1874.77 294.848 1970.52 296.328" stroke="url(#paint25_linear_76_10)" stroke-opacity="0.7" stroke-width="5" stroke-miterlimit="10"/>
<path d="M-35 592.195C45.2563 618.777 134.257 621.547 218.121 591.667C309.782 558.995 347.945 497.668 423.406 447.867C539.931 370.935 588.291 312.294 673.766 305.125C794.946 294.954 884.935 246.337 979.779 210.218C1088.45 168.854 1124.86 115.057 1211.5 144.662C1283.88 169.468 1394.86 144.662 1455.57 137.007C1512.76 129.711 1518.04 133.158 1597.63 181.141C1688.52 235.975 1713.83 248.029 1766.63 270.487C1810.57 289.202 1876.72 313.204 1972.15 313.056" stroke="url(#paint26_linear_76_10)" stroke-opacity="0.7" stroke-width="5" stroke-miterlimit="10"/>
<path d="M-35 611.652C47.0093 639.524 131.9 640.581 209.194 613.09C300.029 580.566 334.908 518.309 413.835 467.176C522.643 396.693 570.337 348.394 656.377 339.766C787.35 326.591 884.37 273.512 986.973 230.711C1103.64 182.073 1142.87 124.743 1238.84 148.237C1314.97 166.889 1415.31 149.041 1470.42 144.685C1521.99 140.603 1527.73 145.044 1609.96 198.736C1701.58 258.54 1724.47 269.388 1770.29 289.393C1813.55 308.299 1878.68 332.28 1973.8 330.503" stroke="url(#paint27_linear_76_10)" stroke-opacity="0.7" stroke-width="5" stroke-miterlimit="10"/>
<path d="M-35 632.332C48.7422 661.494 129.522 660.923 200.248 635.504C290.277 603.128 321.811 539.856 404.263 487.475C505.133 423.379 552.364 385.483 639.007 375.396C779.814 359.007 883.846 301.699 994.146 252.215C1118.91 196.239 1161.39 136.584 1266.17 152.825C1345.84 165.174 1435.67 154.305 1485.29 153.353C1531.2 152.465 1537.46 157.879 1622.31 217.323C1714.7 282.054 1735.15 291.824 1773.94 309.312C1816.52 328.471 1880.73 352.367 1975.44 348.963" stroke="url(#paint28_linear_76_10)" stroke-opacity="0.7" stroke-width="5" stroke-miterlimit="10"/>
<path d="M-35 653.374C50.4952 683.825 127.165 681.584 191.301 658.407C280.524 626.157 308.653 561.744 394.692 508.263C487.683 450.447 534.33 423.02 621.618 411.516C772.177 391.68 883.363 330.354 1001.32 274.187C1134.31 210.895 1180.37 149.78 1293.49 157.879C1376.51 163.821 1456.04 159.994 1500.15 162.51C1540.36 164.773 1547.26 171.117 1634.64 236.398C1727.92 306.035 1745.63 314.917 1777.59 329.719C1819.44 349.196 1882.57 372.965 1977.07 367.911" stroke="url(#paint29_linear_76_10)" stroke-opacity="0.7" stroke-width="5" stroke-miterlimit="10"/>
<path d="M-35 676.276C52.2482 707.996 124.747 703.978 182.355 683.148C270.711 650.836 295.395 585.301 385.121 530.89C470.193 479.292 516.276 462.374 604.249 449.474C764.48 425.98 882.92 360.869 1008.41 297.999C1149.46 227.389 1200.22 174.416 1320.73 164.773C1406.61 157.921 1476.31 167.522 1514.93 173.506C1549.53 178.878 1557.05 186.195 1646.92 257.291C1741.1 331.855 1756.09 339.764 1781.15 351.923C1822.22 371.865 1884.44 395.359 1978.62 388.677" stroke="url(#paint30_linear_76_10)" stroke-opacity="0.7" stroke-width="5" stroke-miterlimit="10"/>
<path d="M-35 698.944C53.9811 731.955 122.389 726.287 173.428 707.678C260.959 675.514 282.015 608.414 375.55 553.305C452.683 507.86 498.181 501.495 586.86 487.221C756.742 459.878 882.496 391.15 1015.69 321.619C1164.97 243.65 1220.51 186.279 1348.16 171.476C1436.81 161.241 1496.8 174.711 1529.87 184.291C1558.86 192.75 1567.06 200.997 1659.33 277.993C1754.51 357.421 1766.64 364.547 1784.9 373.958C1825.04 394.64 1886.48 417.542 1980.35 409.231" stroke="url(#paint31_linear_76_10)" stroke-opacity="0.7" stroke-width="5" stroke-miterlimit="10"/>
<path d="M-35 721.637C55.6737 755.916 120.153 748.62 164.482 732.21C251.126 700.194 268.495 631.191 365.979 575.723C435.173 536.347 480.067 540.619 569.491 524.97C748.924 493.567 882.093 421.35 1022.86 345.221C1180.39 259.914 1240.86 198.059 1375.48 178.16C1467.26 164.605 1517.27 181.797 1544.74 195.077C1568.17 206.412 1576.98 215.78 1671.68 298.697C1767.89 383.01 1777.06 389.418 1788.55 395.974C1827.38 418.157 1888.41 439.748 1981.99 429.809" stroke="url(#paint32_linear_76_10)" stroke-opacity="0.7" stroke-width="5" stroke-miterlimit="10"/>
<defs>
<linearGradient id="paint0_linear_76_10" x1="981.553" y1="59.291" x2="981.553" y2="351.096" gradientUnits="userSpaceOnUse">
<stop stop-color="#1C4E53" stop-opacity="0.58"/>
<stop offset="1" stop-color="#3EAEB9" stop-opacity="0.07"/>
</linearGradient>
<linearGradient id="paint1_linear_76_10" x1="980.243" y1="70.3516" x2="980.243" y2="343.153" gradientUnits="userSpaceOnUse">
<stop stop-color="#1C4E53" stop-opacity="0.58"/>
<stop offset="1" stop-color="#3EAEB9" stop-opacity="0.07"/>
</linearGradient>
<linearGradient id="paint2_linear_76_10" x1="978.913" y1="79.6836" x2="978.913" y2="336.993" gradientUnits="userSpaceOnUse">
<stop stop-color="#1C4E53" stop-opacity="0.58"/>
<stop offset="1" stop-color="#3EAEB9" stop-opacity="0.07"/>
</linearGradient>
<linearGradient id="paint3_linear_76_10" x1="977.583" y1="86.8633" x2="977.583" y2="333.052" gradientUnits="userSpaceOnUse">
<stop stop-color="#1C4E53" stop-opacity="0.58"/>
<stop offset="1" stop-color="#3EAEB9" stop-opacity="0.07"/>
</linearGradient>
<linearGradient id="paint4_linear_76_10" x1="976.253" y1="92.7031" x2="976.253" y2="330.197" gradientUnits="userSpaceOnUse">
<stop stop-color="#1C4E53" stop-opacity="0.58"/>
<stop offset="1" stop-color="#3EAEB9" stop-opacity="0.07"/>
</linearGradient>
<linearGradient id="paint5_linear_76_10" x1="974.954" y1="90.2363" x2="974.954" y2="335.831" gradientUnits="userSpaceOnUse">
<stop stop-color="#1C4E53" stop-opacity="0.58"/>
<stop offset="1" stop-color="#3EAEB9" stop-opacity="0.07"/>
</linearGradient>
<linearGradient id="paint6_linear_76_10" x1="973.614" y1="83.5" x2="973.614" y2="345.813" gradientUnits="userSpaceOnUse">
<stop stop-color="#1C4E53" stop-opacity="0.58"/>
<stop offset="1" stop-color="#3EAEB9" stop-opacity="0.07"/>
</linearGradient>
<linearGradient id="paint7_linear_76_10" x1="972.253" y1="76.4375" x2="972.253" y2="355.941" gradientUnits="userSpaceOnUse">
<stop stop-color="#1C4E53" stop-opacity="0.58"/>
<stop offset="1" stop-color="#3EAEB9" stop-opacity="0.07"/>
</linearGradient>
<linearGradient id="paint8_linear_76_10" x1="970.974" y1="69.2461" x2="970.974" y2="366.205" gradientUnits="userSpaceOnUse">
<stop stop-color="#1C4E53" stop-opacity="0.58"/>
<stop offset="1" stop-color="#3EAEB9" stop-opacity="0.07"/>
</linearGradient>
<linearGradient id="paint9_linear_76_10" x1="969.715" y1="61.8477" x2="969.715" y2="376.808" gradientUnits="userSpaceOnUse">
<stop stop-color="#1C4E53" stop-opacity="0.58"/>
<stop offset="1" stop-color="#3EAEB9" stop-opacity="0.07"/>
</linearGradient>
<linearGradient id="paint10_linear_76_10" x1="968.304" y1="54.1191" x2="968.304" y2="387.624" gradientUnits="userSpaceOnUse">
<stop stop-color="#1C4E53" stop-opacity="0.58"/>
<stop offset="1" stop-color="#3EAEB9" stop-opacity="0.07"/>
</linearGradient>
<linearGradient id="paint11_linear_76_10" x1="966.924" y1="46.0898" x2="966.924" y2="398.792" gradientUnits="userSpaceOnUse">
<stop stop-color="#1C4E53" stop-opacity="0.58"/>
<stop offset="1" stop-color="#3EAEB9" stop-opacity="0.07"/>
</linearGradient>
<linearGradient id="paint12_linear_76_10" x1="965.685" y1="37.8887" x2="965.685" y2="410.175" gradientUnits="userSpaceOnUse">
<stop stop-color="#1C4E53" stop-opacity="0.58"/>
<stop offset="1" stop-color="#3EAEB9" stop-opacity="0.07"/>
</linearGradient>
<linearGradient id="paint13_linear_76_10" x1="964.355" y1="29.3633" x2="964.355" y2="421.781" gradientUnits="userSpaceOnUse">
<stop stop-color="#1C4E53" stop-opacity="0.58"/>
<stop offset="1" stop-color="#3EAEB9" stop-opacity="0.07"/>
</linearGradient>
<linearGradient id="paint14_linear_76_10" x1="962.984" y1="20.6973" x2="962.984" y2="433.562" gradientUnits="userSpaceOnUse">
<stop stop-color="#1C4E53" stop-opacity="0.58"/>
<stop offset="1" stop-color="#3EAEB9" stop-opacity="0.07"/>
</linearGradient>
<linearGradient id="paint15_linear_76_10" x1="961.675" y1="11.9141" x2="961.675" y2="445.507" gradientUnits="userSpaceOnUse">
<stop stop-color="#1C4E53" stop-opacity="0.58"/>
<stop offset="1" stop-color="#3EAEB9" stop-opacity="0.07"/>
</linearGradient>
<linearGradient id="paint16_linear_76_10" x1="960.395" y1="3" x2="960.395" y2="457.556" gradientUnits="userSpaceOnUse">
<stop stop-color="#1C4E53" stop-opacity="0.58"/>
<stop offset="1" stop-color="#3EAEB9" stop-opacity="0.07"/>
</linearGradient>
<linearGradient id="paint17_linear_76_10" x1="961.232" y1="25.0273" x2="961.232" y2="464.185" gradientUnits="userSpaceOnUse">
<stop stop-color="#1C4E53" stop-opacity="0.58"/>
<stop offset="1" stop-color="#3EAEB9" stop-opacity="0.07"/>
</linearGradient>
<linearGradient id="paint18_linear_76_10" x1="962.027" y1="46.8105" x2="962.027" y2="471.07" gradientUnits="userSpaceOnUse">
<stop stop-color="#1C4E53" stop-opacity="0.58"/>
<stop offset="1" stop-color="#3EAEB9" stop-opacity="0.07"/>
</linearGradient>
<linearGradient id="paint19_linear_76_10" x1="962.854" y1="63.7051" x2="962.854" y2="482.837" gradientUnits="userSpaceOnUse">
<stop stop-color="#1C4E53" stop-opacity="0.58"/>
<stop offset="1" stop-color="#3EAEB9" stop-opacity="0.07"/>
</linearGradient>
<linearGradient id="paint20_linear_76_10" x1="963.67" y1="74.6348" x2="963.67" y2="500.457" gradientUnits="userSpaceOnUse">
<stop stop-color="#1C4E53" stop-opacity="0.58"/>
<stop offset="1" stop-color="#3EAEB9" stop-opacity="0.07"/>
</linearGradient>
<linearGradient id="paint21_linear_76_10" x1="964.445" y1="85.3262" x2="964.445" y2="518.539" gradientUnits="userSpaceOnUse">
<stop stop-color="#1C4E53" stop-opacity="0.58"/>
<stop offset="1" stop-color="#3EAEB9" stop-opacity="0.07"/>
</linearGradient>
<linearGradient id="paint22_linear_76_10" x1="965.261" y1="95.6094" x2="965.261" y2="536.919" gradientUnits="userSpaceOnUse">
<stop stop-color="#1C4E53" stop-opacity="0.58"/>
<stop offset="1" stop-color="#3EAEB9" stop-opacity="0.07"/>
</linearGradient>
<linearGradient id="paint23_linear_76_10" x1="966.128" y1="105.588" x2="966.128" y2="555.637" gradientUnits="userSpaceOnUse">
<stop stop-color="#1C4E53" stop-opacity="0.58"/>
<stop offset="1" stop-color="#3EAEB9" stop-opacity="0.07"/>
</linearGradient>
<linearGradient id="paint24_linear_76_10" x1="966.944" y1="115.307" x2="966.944" y2="574.557" gradientUnits="userSpaceOnUse">
<stop stop-color="#1C4E53" stop-opacity="0.58"/>
<stop offset="1" stop-color="#3EAEB9" stop-opacity="0.07"/>
</linearGradient>
<linearGradient id="paint25_linear_76_10" x1="967.76" y1="124.789" x2="967.76" y2="593.729" gradientUnits="userSpaceOnUse">
<stop stop-color="#1C4E53" stop-opacity="0.58"/>
<stop offset="1" stop-color="#3EAEB9" stop-opacity="0.07"/>
</linearGradient>
<linearGradient id="paint26_linear_76_10" x1="968.576" y1="134.076" x2="968.576" y2="613.113" gradientUnits="userSpaceOnUse">
<stop stop-color="#1C4E53" stop-opacity="0.58"/>
<stop offset="1" stop-color="#3EAEB9" stop-opacity="0.07"/>
</linearGradient>
<linearGradient id="paint27_linear_76_10" x1="969.402" y1="142.801" x2="969.402" y2="633.143" gradientUnits="userSpaceOnUse">
<stop stop-color="#1C4E53" stop-opacity="0.58"/>
<stop offset="1" stop-color="#3EAEB9" stop-opacity="0.07"/>
</linearGradient>
<linearGradient id="paint28_linear_76_10" x1="970.218" y1="150.111" x2="970.218" y2="654.397" gradientUnits="userSpaceOnUse">
<stop stop-color="#1C4E53" stop-opacity="0.58"/>
<stop offset="1" stop-color="#3EAEB9" stop-opacity="0.07"/>
</linearGradient>
<linearGradient id="paint29_linear_76_10" x1="971.034" y1="157.154" x2="971.034" y2="676.015" gradientUnits="userSpaceOnUse">
<stop stop-color="#1C4E53" stop-opacity="0.58"/>
<stop offset="1" stop-color="#3EAEB9" stop-opacity="0.07"/>
</linearGradient>
<linearGradient id="paint30_linear_76_10" x1="971.81" y1="162.404" x2="971.81" y2="699.433" gradientUnits="userSpaceOnUse">
<stop stop-color="#1C4E53" stop-opacity="0.58"/>
<stop offset="1" stop-color="#3EAEB9" stop-opacity="0.07"/>
</linearGradient>
<linearGradient id="paint31_linear_76_10" x1="972.676" y1="167.812" x2="972.676" y2="722.686" gradientUnits="userSpaceOnUse">
<stop stop-color="#1C4E53" stop-opacity="0.58"/>
<stop offset="1" stop-color="#3EAEB9" stop-opacity="0.07"/>
</linearGradient>
<linearGradient id="paint32_linear_76_10" x1="973.492" y1="173.213" x2="973.492" y2="745.952" gradientUnits="userSpaceOnUse">
<stop stop-color="#1C4E53" stop-opacity="0.58"/>
<stop offset="1" stop-color="#3EAEB9" stop-opacity="0.07"/>
</linearGradient>
</defs>
</svg>
