<svg width="17" height="23" viewBox="0 0 17 23" fill="none" xmlns="http://www.w3.org/2000/svg">
<path d="M8.5 0C6.24648 0.0028261 4.08602 0.955708 2.49253 2.64962C0.899053 4.34353 0.00266759 6.64016 9.04313e-06 9.03571C-0.00269001 10.9934 0.598857 12.8979 1.71237 14.4571C1.71237 14.4571 1.94419 14.7816 1.98205 14.8284L8.5 23L15.021 14.8243C15.055 14.7808 15.2876 14.4571 15.2876 14.4571L15.2884 14.4547C16.4014 12.8961 17.0026 10.9925 17 9.03571C16.9973 6.64016 16.1009 4.34353 14.5075 2.64962C12.914 0.955708 10.7535 0.0028261 8.5 0ZM8.5 12.3214C7.88868 12.3214 7.29108 12.1287 6.78278 11.7677C6.27449 11.4066 5.87832 10.8935 5.64438 10.2931C5.41043 9.69272 5.34922 9.03207 5.46849 8.3947C5.58775 7.75734 5.88213 7.17188 6.3144 6.71236C6.74667 6.25285 7.29742 5.93991 7.89699 5.81313C8.49657 5.68635 9.11805 5.75142 9.68284 6.00011C10.2476 6.2488 10.7304 6.66994 11.07 7.21027C11.4096 7.7506 11.5909 8.38586 11.5909 9.03571C11.5899 9.90681 11.2639 10.7419 10.6845 11.3579C10.105 11.9738 9.31945 12.3203 8.5 12.3214Z" fill="#F8F2F2"/>
</svg>
