<svg width="17" height="17" viewBox="0 0 17 17" fill="none" xmlns="http://www.w3.org/2000/svg">
<path d="M15.3343 11.5928L12.9306 11.3184C12.648 11.2852 12.3615 11.3165 12.0927 11.4099C11.8239 11.5033 11.5797 11.6565 11.3786 11.8578L9.63731 13.5991C6.95081 12.2328 4.76719 10.0492 3.40087 7.36264L5.15162 5.61188C5.55855 5.20495 5.75728 4.63714 5.69104 4.05986L5.41659 1.67505C5.36294 1.21339 5.14139 0.787591 4.79412 0.478712C4.44685 0.169833 3.99812 -0.00055102 3.53336 1.3388e-06H1.89618C0.826801 1.3388e-06 -0.0627681 0.889574 0.00347639 1.95895C0.505041 10.0408 6.96861 16.495 15.041 16.9965C16.1103 17.0628 16.9999 16.1732 16.9999 15.1038V13.4666C17.0094 12.5108 16.2901 11.7064 15.3343 11.5928Z" fill="#F8F2F2"/>
</svg>
